<svg width="1024" height="1024" viewBox="0 0 1024 1024" fill="none" xmlns="http://www.w3.org/2000/svg">
<path d="M1003 440L895 253L846 430L1003 440Z" fill="#4B8BBE"/>
<path d="M507 197L159 93L276 300L419 541L507 197Z" fill="#39CEFD"/>
<path d="M507 197L419 541L774 694L619 403L507 197Z" fill="#306998"/>
<path d="M619 403L774 694L846 430L895 253L619 403Z" fill="#16B9FD"/>
<path d="M774 694L419 541L464 772L774 694Z" fill="#03569B"/>
<path d="M159 973L464 772L419 541L363 633L159 973Z" fill="#4B8BBE"/>
<path d="M419 541L276 300L20 290L363 633L419 541Z" fill="#FFD43B"/>
</svg>
